#!OML:ASF E:\basketball\basketball\Project 1\Capture day 1\Session 1\Subject.ASF
:FULLY-SPECIFIED
:DEGREES
193
root -8.23877 13.331 3.88696 -49.7277 72.7455 -60.7952
lowerback 28.7253 3.70763 13.0525
upperback 13.5311 9.60018 6.6836
thorax 0.554907 5.67526 -2.43197
lowerneck -12.2952 0.8421 -6.659
upperneck -15.5124 3.28554 5.26828
head -3.20673 2.32359 2.95165
rclavicle -3.81667e-014 4.6118e-014
rhumerus 22.1726 -20.6251 -83.583
rradius 30.6291
rwrist 3.0635
rhand -23.9647 39.2773
rfingers 7.12502
rthumb 2.51145 9.31237
lclavicle -3.81667e-014 4.6118e-014
lhumerus -70.0597 -22.0621 112.614
lradius 53.8529
lwrist 32.944
lhand -28.9217 41.7399
lfingers 7.12502
lthumb -2.27607 71.7075
rfemur -3.31079 -13.3241 8.45673
rtibia 46.27
rfoot -24.4787 -4.48108
rtoes -54.7166
lfemur -75.497 15.2183 -32.883
ltibia 98.3991
lfoot -15.1687 1.53241
ltoes 0.129497
194
root -7.80867 13.3926 3.94062 -55.251 72.9351 -66.6896
lowerback 28.263 3.63255 12.8137
upperback 13.5492 9.40248 6.73831
thorax 0.704662 5.58487 -2.15397
lowerneck -11.7005 0.807321 -6.71375
upperneck -16.3331 3.35894 6.0856
head -3.20775 2.33116 2.98816
rclavicle 1.08139e-013 7.87187e-014
rhumerus 19.339 -20.5027 -82.8349
rradius 35.1549
rwrist -5.39899
rhand -23.6489 40.006
rfingers 7.12502
rthumb 2.81639 10.0449
lclavicle 1.08139e-013 7.87187e-014
lhumerus -70.1098 -20.2519 112.192
lradius 54.712
lwrist 33.7446
lhand -29.1497 41.6048
lfingers 7.12502
lthumb -2.49632 71.57
rfemur 0.431159 -11.9892 9.58337
rtibia 42.1826
rfoot -21.9499 -2.6215
rtoes -54.6012
lfemur -77.0113 14.7024 -33.8404
ltibia 95.1886
lfoot -14.6236 0.885279
ltoes 1.73647
195
root -7.36968 13.4503 3.99772 -61.0857 72.9746 -72.9188
lowerback 27.7427 3.44994 12.5421
upperback 13.5405 9.05041 6.75476
thorax 0.837486 5.41484 -1.86461
lowerneck -11.0728 0.838068 -6.7672
upperneck -16.9192 3.48785 6.68932
head -3.49295 2.38301 3.17665
rclavicle -1.52667e-013 -7.87187e-014
rhumerus 16.3683 -19.7929 -82.0944
rradius 39.6052
rwrist -11.6987
rhand -23.7068 40.8545
rfingers 7.12502
rthumb 2.76052 10.8926
lclavicle -1.52667e-013 -7.87187e-014
lhumerus -69.9004 -18.2189 111.627
lradius 55.4021
lwrist 34.5457
lhand -29.4452 41.4379
lfingers 7.12502
lthumb -2.78167 71.3995
rfemur 4.07721 -10.4149 11.0251
rtibia 38.0888
rfoot -18.8375 -0.836026
rtoes -54.3649
lfemur -78.164 14.388 -34.9531
ltibia 91.9899
lfoot -14.0194 0.335975
ltoes 3.07114
196
root -6.92267 13.5037 4.05606 -66.9661 72.8252 -79.2007
lowerback 27.1784 3.18091 12.2519
upperback 13.5129 8.57529 6.73597
thorax 0.964493 5.18168 -1.57656
lowerneck -10.4009 0.926025 -6.82818
upperneck -17.482 3.688 7.23015
head -3.78518 2.46597 3.34631
rclavicle 1.7175e-013 2.38542e-014
rhumerus 13.4131 -18.6552 -81.4675
rradius 43.7396
rwrist -15.7978
rhand -24.2076 41.7368
rfingers 7.12502
rthumb 2.27691 11.7692
lclavicle 1.7175e-013 2.38542e-014
lhumerus -69.4448 -16.0418 110.944
lradius 55.9307
lwrist 35.361
lhand -29.7159 41.1921
lfingers 7.12502
lthumb -3.04312 71.1501
rfemur 7.59349 -8.64862 12.7696
rtibia 34.0452
rfoot -15.1687 0.802609
rtoes -53.9491
lfemur -78.9693 14.2994 -36.2087
ltibia 88.8746
lfoot -13.3809 -0.060935
ltoes 4.02048
197
root -6.46882 13.5528 4.11278 -72.6171 72.4779 -85.252
lowerback 26.578 2.84704 11.964
upperback 13.4718 8.00927 6.68161
thorax 1.09739 4.90262 -1.30928
lowerneck -9.74611 1.06067 -6.88962
upperneck -17.9497 3.93888 7.7
head -4.05213 2.5704 3.49327
rclavicle -3.81667e-014 -1.51076e-014
rhumerus 10.5225 -17.2228 -81.0107
rradius 47.5431
rwrist -18.116
rhand -25.1287 42.6172
rfingers 7.12502
rthumb 1.38731 12.6419
lclavicle -3.81667e-014 -1.51076e-014
lhumerus -68.753 -13.7901 110.147
lradius 56.3202
lwrist 36.1819
lhand -29.8639 40.8103
lfingers 7.12502
lthumb -3.18601 70.7663
rfemur 10.8332 -6.80311 14.7629
rtibia 30.3574
rfoot -11.1888 2.13945
rtoes -53.3045
lfemur -79.4436 14.4331 -37.5597
ltibia 85.9411
lfoot -12.7572 -0.311219
ltoes 4.57042
198
root -6.00967 13.5975 4.16471 -77.821 71.9505 -90.8567
lowerback 25.9441 2.46644 11.7027
upperback 13.4198 7.37981 6.58748
thorax 1.24564 4.59261 -1.08727
lowerneck -9.16499 1.23448 -6.93696
upperneck -18.2782 4.22746 8.10075
head -4.27011 2.69114 3.61565
rclavicle 5.80451e-014 -7.95139e-015
rhumerus 7.69057 -15.6501 -80.774
rradius 51.1339
rwrist -19.3127
rhand -26.3603 43.5456
rfingers 7.12502
rthumb 0.197761 13.5659
lclavicle 5.80451e-014 -7.95139e-015
lhumerus -67.8361 -11.5186 109.222
lradius 56.6057
lwrist 36.9823
lhand -29.8212 40.2547
lfingers 7.12502
lthumb -3.14475 70.2112
rfemur 13.6469 -5.06199 16.9035
rtibia 27.3148
rfoot -7.23712 3.0553
rtoes -52.4064
lfemur -79.6041 14.7592 -38.9269
ltibia 83.2422
lfoot -12.1451 -0.447034
ltoes 4.80827
199
root -5.54697 13.6375 4.20887 -82.4468 71.2812 -95.8939
lowerback 25.2753 2.05245 11.4873
upperback 13.3578 6.70617 6.44633
thorax 1.41518 4.26227 -0.934052
lowerneck -8.70294 1.44358 -6.95281
upperneck -18.4554 4.55038 8.44176
head -4.42698 2.82817 3.71358
rclavicle -1.35969e-013 -4.6118e-014
rhumerus 4.88829 -14.1057 -80.8043
rradius 54.6791
rwrist -20.0785
rhand -27.7426 44.6359
rfingers 7.12502
rthumb -1.13729 14.6592
lclavicle -1.35969e-013 -4.6118e-014
lhumerus -66.706 -9.26108 108.155
lradius 56.825
lwrist 37.7216
lhand -29.5728 39.5305
lfingers 7.12502
lthumb -2.90489 69.4904
rfemur 15.849 -3.64609 19.0457
rtibia 25.2602
rfoot -3.73598 3.50759
rtoes -51.2609
lfemur -79.461 15.2291 -40.2142
ltibia 80.8019
lfoot -11.5182 -0.509168
ltoes 4.91696
200
root -5.08221 13.6726 4.24279 -86.4435 70.5204 -100.323
lowerback 24.5714 1.61478 11.3235
upperback 13.2878 6.00028 6.25087
thorax 1.6087 3.918 -0.864939
lowerneck -8.39016 1.68807 -6.92063
upperneck -18.495 4.91229 8.73132
head -4.52142 2.98564 3.78714
rclavicle 2.26615e-014 3.10104e-014
rhumerus 2.08177 -12.7582 -81.1325
rradius 58.3295
rwrist -20.9165
rhand -29.1192 46.0122
rfingers 7.12502
rthumb -2.46688 16.0467
lclavicle 2.26615e-014 3.10104e-014
lhumerus -65.3725 -7.02808 106.939
lradius 57.0067
lwrist 38.3473
lhand -29.1634 38.6912
lfingers 7.12502
lthumb -2.50951 68.6562
rfemur 17.2629 -2.75745 21.0219
rtibia 24.5079
rfoot -1.06335 3.57291
rtoes -49.8978
lfemur -79.0098 15.7906 -41.3269
ltibia 78.6177
lfoot -10.8687 -0.541408
ltoes 5.21682
201
root -4.61639 13.7029 4.26485 -89.8157 69.7222 -104.155
lowerback 23.8349 1.16307 11.2014
upperback 13.2126 5.27171 5.99873
thorax 1.82434 3.56403 -0.881022
lowerneck -8.23425 1.96939 -6.83228
upperneck -18.4289 5.31986 8.97393
head -4.56161 3.16864 3.83664
rclavicle 2.70347e-014 4.33351e-014
rhumerus -0.76276 -11.7549 -81.7523
rradius 62.1773
rwrist -22.0378
rhand -30.3665 47.7305
rfingers 7.12502
rthumb -3.67143 17.7823
lclavicle 2.70347e-014 4.33351e-014
lhumerus -63.8457 -4.8138 105.585
lradius 57.1646
lwrist 38.8001
lhand -28.6897 37.8225
lfingers 7.12502
lthumb -2.05202 67.7924
rfemur 17.8009 -2.5166 22.6841
rtibia 25.2021
rfoot 0.538006 3.42927
rtoes -48.7617
lfemur -78.2369 16.4018 -42.1931
ltibia 76.6679
lfoot -10.2309 -0.59618
ltoes 6.04027
202
root -4.14993 13.7286 4.2742 -92.6019 68.941 -107.425
lowerback 23.076 0.710901 11.0991
upperback 13.1309 4.53526 5.69531
thorax 2.05067 3.20582 -0.970153
lowerneck -8.2048 2.28553 -6.69838
upperneck -18.3004 5.7727 9.1713
head -4.56537 3.37807 3.86452
rclavicle -1.87362e-014 -2.64516e-014
rhumerus -3.68589 -11.2079 -82.6032
rradius 66.2517
rwrist -23.4172
rhand -31.4022 49.6746
rfingers 7.12502
rthumb -4.67149 19.7461
lclavicle -1.87362e-014 -2.64516e-014
lhumerus -62.1477 -2.61212 104.134
lradius 57.2978
lwrist 39.0202
lhand -28.2724 37.0089
lfingers 7.12502
lthumb -1.649 66.9823
rfemur 17.5181 -2.92671 23.9363
rtibia 27.2388
rfoot 1.17087 3.26999
rtoes -47.7987
lfemur -77.1242 17.0397 -42.7758
ltibia 74.9234
lfoot -9.70044 -0.746484
ltoes 7.68266
